<svg xmlns="http://www.w3.org/2000/svg" width="85.926" height="92.293" viewBox="0 0 85.926 92.293">
  <path id="github" d="M32.051,78.362C10.586,84.8,10.586,67.63,2,65.483M62.1,91.241V74.627a14.467,14.467,0,0,0-4.035-11.2c13.48-1.5,27.647-6.611,27.647-30.051a23.351,23.351,0,0,0-6.437-16.1,21.766,21.766,0,0,0-.389-16.188S73.822-.414,62.1,7.442a57.441,57.441,0,0,0-30.051,0C20.331-.414,15.265,1.088,15.265,1.088a21.765,21.765,0,0,0-.386,16.185A23.354,23.354,0,0,0,8.44,33.5c0,23.268,14.167,28.377,27.647,30.051a14.467,14.467,0,0,0-4.035,11.076V91.241" transform="translate(-0.787 0.052)" fill="none" stroke="#061a40" stroke-linecap="round" stroke-linejoin="round" stroke-width="2"/>
</svg>
